<svg width="2120" height="1040"  xmlns="http://www.w3.org/2000/svg">
    <style type="text/css">
	.node {
		cursor: pointer;
	}

	.node circle {
	  fill: #fff;
	  stroke: steelblue;
	  stroke-width: 3px;
	}

	.node text {
	  font: 12px sans-serif;
	}

	.link {
	  fill: none;
	  stroke: #ccc;
	  stroke-width: 2px;
	}
    </style>
<g transform="translate(200,20)"><path class="link" d="M180,847.8260869565217C270,847.8260869565217 270,717.3913043478261 360,717.3913043478261"></path><path class="link" d="M180,847.8260869565217C270,847.8260869565217 270,739.1304347826087 360,739.1304347826087"></path><path class="link" d="M180,847.8260869565217C270,847.8260869565217 270,760.8695652173914 360,760.8695652173914"></path><path class="link" d="M180,847.8260869565217C270,847.8260869565217 270,782.608695652174 360,782.608695652174"></path><path class="link" d="M180,847.8260869565217C270,847.8260869565217 270,804.3478260869565 360,804.3478260869565"></path><path class="link" d="M180,847.8260869565217C270,847.8260869565217 270,826.0869565217391 360,826.0869565217391"></path><path class="link" d="M180,847.8260869565217C270,847.8260869565217 270,847.8260869565217 360,847.8260869565217"></path><path class="link" d="M180,847.8260869565217C270,847.8260869565217 270,869.5652173913044 360,869.5652173913044"></path><path class="link" d="M180,847.8260869565217C270,847.8260869565217 270,891.304347826087 360,891.304347826087"></path><path class="link" d="M180,847.8260869565217C270,847.8260869565217 270,913.0434782608696 360,913.0434782608696"></path><path class="link" d="M180,847.8260869565217C270,847.8260869565217 270,934.7826086956522 360,934.7826086956522"></path><path class="link" d="M180,847.8260869565217C270,847.8260869565217 270,956.5217391304348 360,956.5217391304348"></path><path class="link" d="M180,847.8260869565217C270,847.8260869565217 270,978.2608695652174 360,978.2608695652174"></path><path class="link" d="M180,532.6086956521739C270,532.6086956521739 270,391.304347826087 360,391.304347826087"></path><path class="link" d="M180,532.6086956521739C270,532.6086956521739 270,413.04347826086956 360,413.04347826086956"></path><path class="link" d="M180,532.6086956521739C270,532.6086956521739 270,434.7826086956522 360,434.7826086956522"></path><path class="link" d="M180,532.6086956521739C270,532.6086956521739 270,456.5217391304348 360,456.5217391304348"></path><path class="link" d="M180,532.6086956521739C270,532.6086956521739 270,478.2608695652174 360,478.2608695652174"></path><path class="link" d="M180,532.6086956521739C270,532.6086956521739 270,500 360,500"></path><path class="link" d="M180,532.6086956521739C270,532.6086956521739 270,521.7391304347826 360,521.7391304347826"></path><path class="link" d="M180,532.6086956521739C270,532.6086956521739 270,543.4782608695652 360,543.4782608695652"></path><path class="link" d="M180,532.6086956521739C270,532.6086956521739 270,565.2173913043479 360,565.2173913043479"></path><path class="link" d="M180,532.6086956521739C270,532.6086956521739 270,586.9565217391305 360,586.9565217391305"></path><path class="link" d="M180,532.6086956521739C270,532.6086956521739 270,608.695652173913 360,608.695652173913"></path><path class="link" d="M180,532.6086956521739C270,532.6086956521739 270,630.4347826086956 360,630.4347826086956"></path><path class="link" d="M180,532.6086956521739C270,532.6086956521739 270,652.1739130434783 360,652.1739130434783"></path><path class="link" d="M180,532.6086956521739C270,532.6086956521739 270,673.9130434782609 360,673.9130434782609"></path><path class="link" d="M0,690.2173913043479C90,690.2173913043479 90,532.6086956521739 180,532.6086956521739"></path><path class="link" d="M0,690.2173913043479C90,690.2173913043479 90,847.8260869565217 180,847.8260869565217"></path><path class="link" d="M540,402.17391304347825C630,402.17391304347825 630,293.47826086956525 720,293.47826086956525"></path><path class="link" d="M540,402.17391304347825C630,402.17391304347825 630,315.2173913043478 720,315.2173913043478"></path><path class="link" d="M540,402.17391304347825C630,402.17391304347825 630,336.95652173913044 720,336.95652173913044"></path><path class="link" d="M540,402.17391304347825C630,402.17391304347825 630,358.69565217391306 720,358.69565217391306"></path><path class="link" d="M540,402.17391304347825C630,402.17391304347825 630,380.4347826086957 720,380.4347826086957"></path><path class="link" d="M540,402.17391304347825C630,402.17391304347825 630,402.17391304347825 720,402.17391304347825"></path><path class="link" d="M540,402.17391304347825C630,402.17391304347825 630,423.9130434782609 720,423.9130434782609"></path><path class="link" d="M540,402.17391304347825C630,402.17391304347825 630,445.6521739130435 720,445.6521739130435"></path><path class="link" d="M540,402.17391304347825C630,402.17391304347825 630,467.3913043478261 720,467.3913043478261"></path><path class="link" d="M540,402.17391304347825C630,402.17391304347825 630,489.1304347826087 720,489.1304347826087"></path><path class="link" d="M540,402.17391304347825C630,402.17391304347825 630,510.8695652173913 720,510.8695652173913"></path><path class="link" d="M360,413.04347826086956C450,413.04347826086956 450,402.17391304347825 540,402.17391304347825"></path><path class="link" d="M360,413.04347826086956C450,413.04347826086956 450,423.9130434782609 540,423.9130434782609"></path><path class="link" d="M720,402.17391304347825C810,402.17391304347825 810,21.73913043478261 900,21.73913043478261"></path><path class="link" d="M720,402.17391304347825C810,402.17391304347825 810,43.47826086956522 900,43.47826086956522"></path><path class="link" d="M720,402.17391304347825C810,402.17391304347825 810,65.21739130434783 900,65.21739130434783"></path><path class="link" d="M720,402.17391304347825C810,402.17391304347825 810,86.95652173913044 900,86.95652173913044"></path><path class="link" d="M720,402.17391304347825C810,402.17391304347825 810,108.69565217391305 900,108.69565217391305"></path><path class="link" d="M720,402.17391304347825C810,402.17391304347825 810,130.43478260869566 900,130.43478260869566"></path><path class="link" d="M720,402.17391304347825C810,402.17391304347825 810,152.17391304347825 900,152.17391304347825"></path><path class="link" d="M720,402.17391304347825C810,402.17391304347825 810,173.91304347826087 900,173.91304347826087"></path><path class="link" d="M720,402.17391304347825C810,402.17391304347825 810,195.6521739130435 900,195.6521739130435"></path><path class="link" d="M720,402.17391304347825C810,402.17391304347825 810,217.3913043478261 900,217.3913043478261"></path><path class="link" d="M720,402.17391304347825C810,402.17391304347825 810,239.1304347826087 900,239.1304347826087"></path><path class="link" d="M720,402.17391304347825C810,402.17391304347825 810,260.8695652173913 900,260.8695652173913"></path><path class="link" d="M720,402.17391304347825C810,402.17391304347825 810,282.60869565217394 900,282.60869565217394"></path><path class="link" d="M720,402.17391304347825C810,402.17391304347825 810,304.3478260869565 900,304.3478260869565"></path><path class="link" d="M720,402.17391304347825C810,402.17391304347825 810,326.0869565217391 900,326.0869565217391"></path><path class="link" d="M720,402.17391304347825C810,402.17391304347825 810,347.82608695652175 900,347.82608695652175"></path><path class="link" d="M720,402.17391304347825C810,402.17391304347825 810,369.5652173913044 900,369.5652173913044"></path><path class="link" d="M720,402.17391304347825C810,402.17391304347825 810,391.304347826087 900,391.304347826087"></path><path class="link" d="M720,402.17391304347825C810,402.17391304347825 810,413.04347826086956 900,413.04347826086956"></path><path class="link" d="M720,402.17391304347825C810,402.17391304347825 810,434.7826086956522 900,434.7826086956522"></path><path class="link" d="M720,402.17391304347825C810,402.17391304347825 810,456.5217391304348 900,456.5217391304348"></path><path class="link" d="M720,402.17391304347825C810,402.17391304347825 810,478.2608695652174 900,478.2608695652174"></path><path class="link" d="M720,402.17391304347825C810,402.17391304347825 810,500 900,500"></path><path class="link" d="M720,402.17391304347825C810,402.17391304347825 810,521.7391304347826 900,521.7391304347826"></path><path class="link" d="M720,402.17391304347825C810,402.17391304347825 810,543.4782608695652 900,543.4782608695652"></path><path class="link" d="M720,402.17391304347825C810,402.17391304347825 810,565.2173913043479 900,565.2173913043479"></path><path class="link" d="M720,402.17391304347825C810,402.17391304347825 810,586.9565217391305 900,586.9565217391305"></path><path class="link" d="M720,402.17391304347825C810,402.17391304347825 810,608.695652173913 900,608.695652173913"></path><path class="link" d="M720,402.17391304347825C810,402.17391304347825 810,630.4347826086956 900,630.4347826086956"></path><path class="link" d="M720,402.17391304347825C810,402.17391304347825 810,652.1739130434783 900,652.1739130434783"></path><path class="link" d="M720,402.17391304347825C810,402.17391304347825 810,673.9130434782609 900,673.9130434782609"></path><path class="link" d="M720,402.17391304347825C810,402.17391304347825 810,695.6521739130435 900,695.6521739130435"></path><path class="link" d="M720,402.17391304347825C810,402.17391304347825 810,717.3913043478261 900,717.3913043478261"></path><path class="link" d="M720,402.17391304347825C810,402.17391304347825 810,739.1304347826087 900,739.1304347826087"></path><path class="link" d="M720,402.17391304347825C810,402.17391304347825 810,760.8695652173914 900,760.8695652173914"></path><path class="link" d="M720,402.17391304347825C810,402.17391304347825 810,782.608695652174 900,782.608695652174"></path><g class="node" transform="translate(360,978.2608642578125)"><circle r="10" style="fill: rgb(176, 196, 222);"></circle><text x="-13" dy=".35em" text-anchor="end" style="fill-opacity: 1;">Электронная таблица</text></g><g class="node" transform="translate(360,956.521728515625)"><circle r="10" style="fill: rgb(176, 196, 222);"></circle><text x="-13" dy=".35em" text-anchor="end" style="fill-opacity: 1;">MATLAB</text></g><g class="node" transform="translate(360,934.7825927734375)"><circle r="10" style="fill: rgb(176, 196, 222);"></circle><text x="-13" dy=".35em" text-anchor="end" style="fill-opacity: 1;">CUDA</text></g><g class="node" transform="translate(360,913.04345703125)"><circle r="10" style="fill: rgb(176, 196, 222);"></circle><text x="-13" dy=".35em" text-anchor="end" style="fill-opacity: 1;">SQL</text></g><g class="node" transform="translate(360,891.3043212890625)"><circle r="10" style="fill: rgb(176, 196, 222);"></circle><text x="-13" dy=".35em" text-anchor="end" style="fill-opacity: 1;">R (язык программирования)</text></g><g class="node" transform="translate(360,869.5652465820312)"><circle r="10" style="fill: rgb(176, 196, 222);"></circle><text x="-13" dy=".35em" text-anchor="end" style="fill-opacity: 1;">Экология</text></g><g class="node" transform="translate(360,847.8261108398438)"><circle r="10" style="fill: rgb(176, 196, 222);"></circle><text x="-13" dy=".35em" text-anchor="end" style="fill-opacity: 1;">Биофизика</text></g><g class="node" transform="translate(360,826.0869750976562)"><circle r="10" style="fill: rgb(176, 196, 222);"></circle><text x="-13" dy=".35em" text-anchor="end" style="fill-opacity: 1;">Биохимия</text></g><g class="node" transform="translate(360,804.3478393554688)"><circle r="10" style="fill: rgb(176, 196, 222);"></circle><text x="-13" dy=".35em" text-anchor="end" style="fill-opacity: 1;">Прикладная математика</text></g><g class="node" transform="translate(360,782.6087036132812)"><circle r="10" style="fill: rgb(176, 196, 222);"></circle><text x="-13" dy=".35em" text-anchor="end" style="fill-opacity: 1;">Системная биология</text></g><g class="node" transform="translate(360,760.8695678710938)"><circle r="10" style="fill: rgb(176, 196, 222);"></circle><text x="-13" dy=".35em" text-anchor="end" style="fill-opacity: 1;">Молекулярная биология</text></g><g class="node" transform="translate(360,739.1304321289062)"><circle r="10" style="fill: rgb(176, 196, 222);"></circle><text x="-13" dy=".35em" text-anchor="end" style="fill-opacity: 1;">Геном человека</text></g><g class="node" transform="translate(360,717.3912963867188)"><circle r="10" style="fill: rgb(176, 196, 222);"></circle><text x="-13" dy=".35em" text-anchor="end" style="fill-opacity: 1;">Национальный центр биотехнологической информации</text></g><g class="node" transform="translate(180,847.8261108398438)"><circle r="10" style="fill: rgb(255, 255, 255);"></circle><text x="-13" dy=".35em" text-anchor="end" style="fill-opacity: 1;">Биоинформатика</text></g><g class="node" transform="translate(360,673.9130249023438)"><circle r="10" style="fill: rgb(176, 196, 222);"></circle><text x="-13" dy=".35em" text-anchor="end" style="fill-opacity: 1;">Data mining</text></g><g class="node" transform="translate(360,652.1738891601562)"><circle r="10" style="fill: rgb(176, 196, 222);"></circle><text x="-13" dy=".35em" text-anchor="end" style="fill-opacity: 1;">Извлечение информации</text></g><g class="node" transform="translate(360,630.4347534179688)"><circle r="10" style="fill: rgb(176, 196, 222);"></circle><text x="-13" dy=".35em" text-anchor="end" style="fill-opacity: 1;">Экспертная система</text></g><g class="node" transform="translate(360,608.6956787109375)"><circle r="10" style="fill: rgb(176, 196, 222);"></circle><text x="-13" dy=".35em" text-anchor="end" style="fill-opacity: 1;">База знаний</text></g><g class="node" transform="translate(360,586.95654296875)"><circle r="10" style="fill: rgb(176, 196, 222);"></circle><text x="-13" dy=".35em" text-anchor="end" style="fill-opacity: 1;">Выборка</text></g><g class="node" transform="translate(360,565.2174072265625)"><circle r="10" style="fill: rgb(176, 196, 222);"></circle><text x="-13" dy=".35em" text-anchor="end" style="fill-opacity: 1;">Эмпирическая закономерность</text></g><g class="node" transform="translate(360,543.478271484375)"><circle r="10" style="fill: rgb(255, 255, 255);"></circle><text x="13" dy=".35em" text-anchor="start" style="fill-opacity: 1;">Обучение на примерах</text></g><g class="node" transform="translate(360,521.7391357421875)"><circle r="10" style="fill: rgb(176, 196, 222);"></circle><text x="-13" dy=".35em" text-anchor="end" style="fill-opacity: 1;">Данные (вычислительная техника)</text></g><g class="node" transform="translate(360,500)"><circle r="10" style="fill: rgb(176, 196, 222);"></circle><text x="-13" dy=".35em" text-anchor="end" style="fill-opacity: 1;">Теория графов</text></g><g class="node" transform="translate(360,478.2608642578125)"><circle r="10" style="fill: rgb(176, 196, 222);"></circle><text x="-13" dy=".35em" text-anchor="end" style="fill-opacity: 1;">Теория вероятностей</text></g><g class="node" transform="translate(360,456.521728515625)"><circle r="10" style="fill: rgb(176, 196, 222);"></circle><text x="-13" dy=".35em" text-anchor="end" style="fill-opacity: 1;">Оптимизация (математика)</text></g><g class="node" transform="translate(360,434.7826232910156)"><circle r="10" style="fill: rgb(176, 196, 222);"></circle><text x="-13" dy=".35em" text-anchor="end" style="fill-opacity: 1;">Численные методы</text></g><g class="node" transform="translate(360,413.0434875488281)"><circle r="10" style="fill: rgb(255, 255, 255);"></circle><text x="-13" dy=".35em" text-anchor="end" style="fill-opacity: 1;">Математическая статистика</text></g><g class="node" transform="translate(360,391.3043518066406)"><circle r="10" style="fill: rgb(176, 196, 222);"></circle><text x="-13" dy=".35em" text-anchor="end" style="fill-opacity: 1;">Искусственный интеллект</text></g><g class="node" transform="translate(180,532.6087036132812)"><circle r="10" style="fill: rgb(255, 255, 255);"></circle><text x="-13" dy=".35em" text-anchor="end" style="fill-opacity: 1;">Машинное обучение</text></g><g class="node" transform="translate(0,690.2174072265625)"><circle r="10" style="fill: rgb(255, 255, 255);"></circle><text x="-13" dy=".35em" text-anchor="end" style="fill-opacity: 1;"></text></g><g class="node" transform="translate(540,423.9130554199219)"><circle r="10" style="fill: rgb(176, 196, 222);"></circle><text x="-13" dy=".35em" text-anchor="end" style="fill-opacity: 1;">Статистика</text></g><g class="node" transform="translate(720,510.86956787109375)"><circle r="10" style="fill: rgb(255, 255, 255);"></circle><text x="13" dy=".35em" text-anchor="start" style="fill-opacity: 1;">Естественные науки</text></g><g class="node" transform="translate(720,489.13043212890625)"><circle r="10" style="fill: rgb(255, 255, 255);"></circle><text x="13" dy=".35em" text-anchor="start" style="fill-opacity: 1;">Идеализация</text></g><g class="node" transform="translate(720,467.39129638671875)"><circle r="10" style="fill: rgb(255, 255, 255);"></circle><text x="13" dy=".35em" text-anchor="start" style="fill-opacity: 1;">Аксиома</text></g><g class="node" transform="translate(720,445.65216064453125)"><circle r="10" style="fill: rgb(255, 255, 255);"></circle><text x="13" dy=".35em" text-anchor="start" style="fill-opacity: 1;">Математический объект</text></g><g class="node" transform="translate(720,423.9130554199219)"><circle r="10" style="fill: rgb(255, 255, 255);"></circle><text x="13" dy=".35em" text-anchor="start" style="fill-opacity: 1;">Геометрия</text></g><g class="node" transform="translate(720,402.1739196777344)"><circle r="10" style="fill: rgb(255, 255, 255);"></circle><text x="-13" dy=".35em" text-anchor="end" style="fill-opacity: 1;">Арифметика</text></g><g class="node" transform="translate(720,380.4347839355469)"><circle r="10" style="fill: rgb(255, 255, 255);"></circle><text x="13" dy=".35em" text-anchor="start" style="fill-opacity: 1;">Древнегреческий язык</text></g><g class="node" transform="translate(720,358.6956481933594)"><circle r="10" style="fill: rgb(255, 255, 255);"></circle><text x="13" dy=".35em" text-anchor="start" style="fill-opacity: 1;">Рафаэль</text></g><g class="node" transform="translate(720,336.9565124511719)"><circle r="10" style="fill: rgb(255, 255, 255);"></circle><text x="13" dy=".35em" text-anchor="start" style="fill-opacity: 1;">Афинская школа</text></g><g class="node" transform="translate(720,315.2173767089844)"><circle r="10" style="fill: rgb(255, 255, 255);"></circle><text x="13" dy=".35em" text-anchor="start" style="fill-opacity: 1;">Евклид</text></g><g class="node" transform="translate(720,293.478271484375)"><circle r="10" style="fill: rgb(255, 255, 255);"></circle><text x="13" dy=".35em" text-anchor="start" style="fill-opacity: 1;">Математика (значения)</text></g><g class="node" transform="translate(540,402.1739196777344)"><circle r="10" style="fill: rgb(255, 255, 255);"></circle><text x="-13" dy=".35em" text-anchor="end" style="fill-opacity: 1;">Математика</text></g><g class="node" transform="translate(900,782.6087036132812)"><circle r="10" style="fill: rgb(255, 255, 255);"></circle><text x="13" dy=".35em" text-anchor="start" style="fill-opacity: 1;">Общее образование</text></g><g class="node" transform="translate(900,760.8695678710938)"><circle r="10" style="fill: rgb(255, 255, 255);"></circle><text x="13" dy=".35em" text-anchor="start" style="fill-opacity: 1;">Непротиворечивость</text></g><g class="node" transform="translate(900,739.1304321289062)"><circle r="10" style="fill: rgb(255, 255, 255);"></circle><text x="13" dy=".35em" text-anchor="start" style="fill-opacity: 1;">Аксиомы Пеано</text></g><g class="node" transform="translate(900,717.3912963867188)"><circle r="10" style="fill: rgb(255, 255, 255);"></circle><text x="13" dy=".35em" text-anchor="start" style="fill-opacity: 1;">Дедуктивное умозаключение</text></g><g class="node" transform="translate(900,695.6521606445312)"><circle r="10" style="fill: rgb(255, 255, 255);"></circle><text x="13" dy=".35em" text-anchor="start" style="fill-opacity: 1;">Логарифм</text></g><g class="node" transform="translate(900,673.9130249023438)"><circle r="10" style="fill: rgb(255, 255, 255);"></circle><text x="13" dy=".35em" text-anchor="start" style="fill-opacity: 1;">Механика</text></g><g class="node" transform="translate(900,652.1738891601562)"><circle r="10" style="fill: rgb(255, 255, 255);"></circle><text x="13" dy=".35em" text-anchor="start" style="fill-opacity: 1;">Астрономия</text></g><g class="node" transform="translate(900,630.4347534179688)"><circle r="10" style="fill: rgb(255, 255, 255);"></circle><text x="13" dy=".35em" text-anchor="start" style="fill-opacity: 1;">Новое время</text></g><g class="node" transform="translate(900,608.6956787109375)"><circle r="10" style="fill: rgb(255, 255, 255);"></circle><text x="13" dy=".35em" text-anchor="start" style="fill-opacity: 1;">История математики в России</text></g><g class="node" transform="translate(900,586.95654296875)"><circle r="10" style="fill: rgb(255, 255, 255);"></circle><text x="13" dy=".35em" text-anchor="start" style="fill-opacity: 1;">История математики</text></g><g class="node" transform="translate(900,565.2174072265625)"><circle r="10" style="fill: rgb(255, 255, 255);"></circle><text x="13" dy=".35em" text-anchor="start" style="fill-opacity: 1;">Математика исламского Средневековья</text></g><g class="node" transform="translate(900,543.478271484375)"><circle r="10" style="fill: rgb(255, 255, 255);"></circle><text x="13" dy=".35em" text-anchor="start" style="fill-opacity: 1;">История математики в Индии</text></g><g class="node" transform="translate(900,521.7391357421875)"><circle r="10" style="fill: rgb(255, 255, 255);"></circle><text x="13" dy=".35em" text-anchor="start" style="fill-opacity: 1;">Иррациональное число</text></g><g class="node" transform="translate(900,500)"><circle r="10" style="fill: rgb(255, 255, 255);"></circle><text x="13" dy=".35em" text-anchor="start" style="fill-opacity: 1;">Строительство</text></g><g class="node" transform="translate(900,478.2608642578125)"><circle r="10" style="fill: rgb(255, 255, 255);"></circle><text x="13" dy=".35em" text-anchor="start" style="fill-opacity: 1;">Навигация</text></g><g class="node" transform="translate(900,456.521728515625)"><circle r="10" style="fill: rgb(255, 255, 255);"></circle><text x="13" dy=".35em" text-anchor="start" style="fill-opacity: 1;">Торговля</text></g><g class="node" transform="translate(900,434.7826232910156)"><circle r="10" style="fill: rgb(255, 255, 255);"></circle><text x="13" dy=".35em" text-anchor="start" style="fill-opacity: 1;">Семь свободных искусств</text></g><g class="node" transform="translate(900,413.0434875488281)"><circle r="10" style="fill: rgb(255, 255, 255);"></circle><text x="13" dy=".35em" text-anchor="start" style="fill-opacity: 1;">Неоплатонизм</text></g><g class="node" transform="translate(900,391.3043518066406)"><circle r="10" style="fill: rgb(255, 255, 255);"></circle><text x="13" dy=".35em" text-anchor="start" style="fill-opacity: 1;">Средние века</text></g><g class="node" transform="translate(900,369.5652160644531)"><circle r="10" style="fill: rgb(255, 255, 255);"></circle><text x="13" dy=".35em" text-anchor="start" style="fill-opacity: 1;">Пифагореизм</text></g><g class="node" transform="translate(900,347.8260803222656)"><circle r="10" style="fill: rgb(255, 255, 255);"></circle><text x="13" dy=".35em" text-anchor="start" style="fill-opacity: 1;">Философ</text></g><g class="node" transform="translate(900,326.0869445800781)"><circle r="10" style="fill: rgb(255, 255, 255);"></circle><text x="13" dy=".35em" text-anchor="start" style="fill-opacity: 1;">Математика в Древней Греции</text></g><g class="node" transform="translate(900,304.34783935546875)"><circle r="10" style="fill: rgb(255, 255, 255);"></circle><text x="13" dy=".35em" text-anchor="start" style="fill-opacity: 1;">Сельское хозяйство</text></g><g class="node" transform="translate(900,282.60870361328125)"><circle r="10" style="fill: rgb(176, 196, 222);"></circle><text x="-13" dy=".35em" text-anchor="end" style="fill-opacity: 1;">Бухгалтерский учёт</text></g><g class="node" transform="translate(900,260.86956787109375)"><circle r="10" style="fill: rgb(255, 255, 255);"></circle><text x="13" dy=".35em" text-anchor="start" style="fill-opacity: 1;">Счёт (математика)</text></g><g class="node" transform="translate(900,239.13043212890625)"><circle r="10" style="fill: rgb(255, 255, 255);"></circle><text x="13" dy=".35em" text-anchor="start" style="fill-opacity: 1;">История арифметики</text></g><g class="node" transform="translate(900,217.3913116455078)"><circle r="10" style="fill: rgb(255, 255, 255);"></circle><text x="13" dy=".35em" text-anchor="start" style="fill-opacity: 1;">Предикат</text></g><g class="node" transform="translate(900,195.6521759033203)"><circle r="10" style="fill: rgb(255, 255, 255);"></circle><text x="13" dy=".35em" text-anchor="start" style="fill-opacity: 1;">Формальная система</text></g><g class="node" transform="translate(900,173.9130401611328)"><circle r="10" style="fill: rgb(255, 255, 255);"></circle><text x="13" dy=".35em" text-anchor="start" style="fill-opacity: 1;">Деление (математика)</text></g><g class="node" transform="translate(900,152.17391967773438)"><circle r="10" style="fill: rgb(255, 255, 255);"></circle><text x="13" dy=".35em" text-anchor="start" style="fill-opacity: 1;">Умножение</text></g><g class="node" transform="translate(900,130.43478393554688)"><circle r="10" style="fill: rgb(255, 255, 255);"></circle><text x="13" dy=".35em" text-anchor="start" style="fill-opacity: 1;">Вычитание</text></g><g class="node" transform="translate(900,108.6956558227539)"><circle r="10" style="fill: rgb(255, 255, 255);"></circle><text x="13" dy=".35em" text-anchor="start" style="fill-opacity: 1;">Сложение</text></g><g class="node" transform="translate(900,86.9565200805664)"><circle r="10" style="fill: rgb(176, 196, 222);"></circle><text x="-13" dy=".35em" text-anchor="end" style="fill-opacity: 1;">Вычисление</text></g><g class="node" transform="translate(900,65.21739196777344)"><circle r="10" style="fill: rgb(255, 255, 255);"></circle><text x="13" dy=".35em" text-anchor="start" style="fill-opacity: 1;">Измерение</text></g><g class="node" transform="translate(900,43.4782600402832)"><circle r="10" style="fill: rgb(255, 255, 255);"></circle><text x="13" dy=".35em" text-anchor="start" style="fill-opacity: 1;">Отношение (теория множеств)</text></g><g class="node" transform="translate(900,21.7391300201416)"><circle r="10" style="fill: rgb(255, 255, 255);"></circle><text x="13" dy=".35em" text-anchor="start" style="fill-opacity: 1;">Число</text></g></g>
</svg>