<svg width="2120" height="1040"  xmlns="http://www.w3.org/2000/svg">
    <style type="text/css">
	.node {
		cursor: pointer;
	}

	.node circle {
	  fill: #fff;
	  stroke: steelblue;
	  stroke-width: 3px;
	}

	.node text {
	  font: 12px sans-serif;
	}

	.link {
	  fill: none;
	  stroke: #ccc;
	  stroke-width: 2px;
	}
    </style>
<g transform="translate(200,20)"><path class="link" d="M180,758.6206896551724C270,758.6206896551724 270,551.7241379310345 360,551.7241379310345"></path><path class="link" d="M180,758.6206896551724C270,758.6206896551724 270,586.2068965517242 360,586.2068965517242"></path><path class="link" d="M180,758.6206896551724C270,758.6206896551724 270,620.6896551724138 360,620.6896551724138"></path><path class="link" d="M180,758.6206896551724C270,758.6206896551724 270,655.1724137931035 360,655.1724137931035"></path><path class="link" d="M180,758.6206896551724C270,758.6206896551724 270,689.6551724137931 360,689.6551724137931"></path><path class="link" d="M180,758.6206896551724C270,758.6206896551724 270,724.1379310344828 360,724.1379310344828"></path><path class="link" d="M180,758.6206896551724C270,758.6206896551724 270,758.6206896551724 360,758.6206896551724"></path><path class="link" d="M180,758.6206896551724C270,758.6206896551724 270,793.1034482758621 360,793.1034482758621"></path><path class="link" d="M180,758.6206896551724C270,758.6206896551724 270,827.5862068965519 360,827.5862068965519"></path><path class="link" d="M180,758.6206896551724C270,758.6206896551724 270,862.0689655172415 360,862.0689655172415"></path><path class="link" d="M180,758.6206896551724C270,758.6206896551724 270,896.5517241379312 360,896.5517241379312"></path><path class="link" d="M180,758.6206896551724C270,758.6206896551724 270,931.0344827586208 360,931.0344827586208"></path><path class="link" d="M180,758.6206896551724C270,758.6206896551724 270,965.5172413793105 360,965.5172413793105"></path><path class="link" d="M180,258.62068965517244C270,258.62068965517244 270,34.48275862068966 360,34.48275862068966"></path><path class="link" d="M180,258.62068965517244C270,258.62068965517244 270,68.96551724137932 360,68.96551724137932"></path><path class="link" d="M180,258.62068965517244C270,258.62068965517244 270,103.44827586206898 360,103.44827586206898"></path><path class="link" d="M180,258.62068965517244C270,258.62068965517244 270,137.93103448275863 360,137.93103448275863"></path><path class="link" d="M180,258.62068965517244C270,258.62068965517244 270,172.41379310344828 360,172.41379310344828"></path><path class="link" d="M180,258.62068965517244C270,258.62068965517244 270,206.89655172413796 360,206.89655172413796"></path><path class="link" d="M180,258.62068965517244C270,258.62068965517244 270,241.37931034482762 360,241.37931034482762"></path><path class="link" d="M180,258.62068965517244C270,258.62068965517244 270,275.86206896551727 360,275.86206896551727"></path><path class="link" d="M180,258.62068965517244C270,258.62068965517244 270,310.3448275862069 360,310.3448275862069"></path><path class="link" d="M180,258.62068965517244C270,258.62068965517244 270,344.82758620689657 360,344.82758620689657"></path><path class="link" d="M180,258.62068965517244C270,258.62068965517244 270,379.3103448275862 360,379.3103448275862"></path><path class="link" d="M180,258.62068965517244C270,258.62068965517244 270,413.79310344827593 360,413.79310344827593"></path><path class="link" d="M180,258.62068965517244C270,258.62068965517244 270,448.2758620689656 360,448.2758620689656"></path><path class="link" d="M180,258.62068965517244C270,258.62068965517244 270,482.75862068965523 360,482.75862068965523"></path><path class="link" d="M0,508.62068965517244C90,508.62068965517244 90,258.62068965517244 180,258.62068965517244"></path><path class="link" d="M0,508.62068965517244C90,508.62068965517244 90,758.6206896551724 180,758.6206896551724"></path><g class="node" transform="translate(360,965.5172119140625)"><circle r="10" style="fill: rgb(176, 196, 222);"></circle><text x="-13" dy=".35em" text-anchor="end" style="fill-opacity: 1;">Электронная таблица</text></g><g class="node" transform="translate(360,931.0344848632812)"><circle r="10" style="fill: rgb(176, 196, 222);"></circle><text x="-13" dy=".35em" text-anchor="end" style="fill-opacity: 1;">MATLAB</text></g><g class="node" transform="translate(360,896.5516967773438)"><circle r="10" style="fill: rgb(176, 196, 222);"></circle><text x="-13" dy=".35em" text-anchor="end" style="fill-opacity: 1;">CUDA</text></g><g class="node" transform="translate(360,862.0689697265625)"><circle r="10" style="fill: rgb(176, 196, 222);"></circle><text x="-13" dy=".35em" text-anchor="end" style="fill-opacity: 1;">SQL</text></g><g class="node" transform="translate(360,827.586181640625)"><circle r="10" style="fill: rgb(176, 196, 222);"></circle><text x="-13" dy=".35em" text-anchor="end" style="fill-opacity: 1;">R (язык программирования)</text></g><g class="node" transform="translate(360,793.1034545898438)"><circle r="10" style="fill: rgb(176, 196, 222);"></circle><text x="-13" dy=".35em" text-anchor="end" style="fill-opacity: 1;">Экология</text></g><g class="node" transform="translate(360,758.6206665039062)"><circle r="10" style="fill: rgb(176, 196, 222);"></circle><text x="-13" dy=".35em" text-anchor="end" style="fill-opacity: 1;">Биофизика</text></g><g class="node" transform="translate(360,724.137939453125)"><circle r="10" style="fill: rgb(176, 196, 222);"></circle><text x="-13" dy=".35em" text-anchor="end" style="fill-opacity: 1;">Биохимия</text></g><g class="node" transform="translate(360,689.6551513671875)"><circle r="10" style="fill: rgb(176, 196, 222);"></circle><text x="-13" dy=".35em" text-anchor="end" style="fill-opacity: 1;">Прикладная математика</text></g><g class="node" transform="translate(360,655.1724243164062)"><circle r="10" style="fill: rgb(176, 196, 222);"></circle><text x="-13" dy=".35em" text-anchor="end" style="fill-opacity: 1;">Системная биология</text></g><g class="node" transform="translate(360,620.6896362304688)"><circle r="10" style="fill: rgb(176, 196, 222);"></circle><text x="-13" dy=".35em" text-anchor="end" style="fill-opacity: 1;">Молекулярная биология</text></g><g class="node" transform="translate(360,586.2069091796875)"><circle r="10" style="fill: rgb(176, 196, 222);"></circle><text x="-13" dy=".35em" text-anchor="end" style="fill-opacity: 1;">Геном человека</text></g><g class="node" transform="translate(360,551.72412109375)"><circle r="10" style="fill: rgb(176, 196, 222);"></circle><text x="-13" dy=".35em" text-anchor="end" style="fill-opacity: 1;">Национальный центр биотехнологической информации</text></g><g class="node" transform="translate(180,758.6206665039062)"><circle r="10" style="fill: rgb(255, 255, 255);"></circle><text x="-13" dy=".35em" text-anchor="end" style="fill-opacity: 1;">Биоинформатика</text></g><g class="node" transform="translate(360,482.75860595703125)"><circle r="10" style="fill: rgb(176, 196, 222);"></circle><text x="-13" dy=".35em" text-anchor="end" style="fill-opacity: 1;">Data mining</text></g><g class="node" transform="translate(360,448.2758483886719)"><circle r="10" style="fill: rgb(176, 196, 222);"></circle><text x="-13" dy=".35em" text-anchor="end" style="fill-opacity: 1;">Извлечение информации</text></g><g class="node" transform="translate(360,413.7930908203125)"><circle r="10" style="fill: rgb(176, 196, 222);"></circle><text x="-13" dy=".35em" text-anchor="end" style="fill-opacity: 1;">Экспертная система</text></g><g class="node" transform="translate(360,379.3103332519531)"><circle r="10" style="fill: rgb(176, 196, 222);"></circle><text x="-13" dy=".35em" text-anchor="end" style="fill-opacity: 1;">База знаний</text></g><g class="node" transform="translate(360,344.82757568359375)"><circle r="10" style="fill: rgb(176, 196, 222);"></circle><text x="-13" dy=".35em" text-anchor="end" style="fill-opacity: 1;">Выборка</text></g><g class="node" transform="translate(360,310.3448181152344)"><circle r="10" style="fill: rgb(176, 196, 222);"></circle><text x="-13" dy=".35em" text-anchor="end" style="fill-opacity: 1;">Эмпирическая закономерность</text></g><g class="node" transform="translate(360,275.862060546875)"><circle r="10" style="fill: rgb(255, 255, 255);"></circle><text x="13" dy=".35em" text-anchor="start" style="fill-opacity: 1;">Обучение на примерах</text></g><g class="node" transform="translate(360,241.37930297851562)"><circle r="10" style="fill: rgb(176, 196, 222);"></circle><text x="-13" dy=".35em" text-anchor="end" style="fill-opacity: 1;">Данные (вычислительная техника)</text></g><g class="node" transform="translate(360,206.89654541015625)"><circle r="10" style="fill: rgb(176, 196, 222);"></circle><text x="-13" dy=".35em" text-anchor="end" style="fill-opacity: 1;">Теория графов</text></g><g class="node" transform="translate(360,172.41378784179688)"><circle r="10" style="fill: rgb(176, 196, 222);"></circle><text x="-13" dy=".35em" text-anchor="end" style="fill-opacity: 1;">Теория вероятностей</text></g><g class="node" transform="translate(360,137.9310302734375)"><circle r="10" style="fill: rgb(176, 196, 222);"></circle><text x="-13" dy=".35em" text-anchor="end" style="fill-opacity: 1;">Оптимизация (математика)</text></g><g class="node" transform="translate(360,103.44827270507812)"><circle r="10" style="fill: rgb(176, 196, 222);"></circle><text x="-13" dy=".35em" text-anchor="end" style="fill-opacity: 1;">Численные методы</text></g><g class="node" transform="translate(360,68.96551513671875)"><circle r="10" style="fill: rgb(176, 196, 222);"></circle><text x="-13" dy=".35em" text-anchor="end" style="fill-opacity: 1;">Математическая статистика</text></g><g class="node" transform="translate(360,34.482757568359375)"><circle r="10" style="fill: rgb(176, 196, 222);"></circle><text x="-13" dy=".35em" text-anchor="end" style="fill-opacity: 1;">Искусственный интеллект</text></g><g class="node" transform="translate(180,258.6206970214844)"><circle r="10" style="fill: rgb(255, 255, 255);"></circle><text x="-13" dy=".35em" text-anchor="end" style="fill-opacity: 1;">Машинное обучение</text></g><g class="node" transform="translate(0,508.6206970214844)"><circle r="10" style="fill: rgb(255, 255, 255);"></circle><text x="-13" dy=".35em" text-anchor="end" style="fill-opacity: 1;"></text></g></g>
</svg>